<?xml version="1.0" encoding="UTF-8"?> <svg xmlns="http://www.w3.org/2000/svg" width="575" height="449" fill="none"><g clip-path="url(#a)"><path fill="#F6F6F3" d="M0 0h575v449H0z" style="fill:#f6f6f3;fill:color(display-p3 .9647 .9647 .9529);fill-opacity:1"></path><g filter="url(#b)"><rect width="596" height="478" x="40" y="40" fill="#fff" rx="8" style="fill:#fff;fill-opacity:1"></rect></g><g clip-path="url(#c)"><rect width="1024" height="544" x="40" y="40" fill="#fff" rx="8" style="fill:#fff;fill-opacity:1"></rect><mask id="d" fill="#fff"><path d="M40 40h48v544H40V40Z"></path></mask><path fill="#F6F6F3" d="M40 40h48v544H40V40Z" style="fill:#f6f6f3;fill:color(display-p3 .9647 .9647 .9529);fill-opacity:1"></path><path fill="#E7E5DF" fill-opacity=".6" d="M87.4 40v544h1.2V40h-1.2Z" mask="url(#d)" style="fill:#e7e5df;fill:color(display-p3 .9059 .898 .8745);fill-opacity:.6"></path><path fill="#242424" fill-opacity=".6" d="M70 64a.5.5 0 0 1-.5.5h-11a.5.5 0 0 1 0-1h11a.5.5 0 0 1 .5.5Zm-11.5-3.5h11a.5.5 0 0 0 0-1h-11a.5.5 0 0 0 0 1Zm11 7h-11a.5.5 0 0 0 0 1h11a.5.5 0 0 0 0-1ZM70.352 101.646l-3.13-3.129a5.506 5.506 0 1 0-.706.707l3.128 3.13a.505.505 0 0 0 .708 0 .506.506 0 0 0 .108-.546.513.513 0 0 0-.108-.162ZM58.498 95a4.5 4.5 0 1 1 9 0 4.5 4.5 0 0 1-9 0ZM70 122.5v2.5a.501.501 0 1 1-1 0v-2h-2a.503.503 0 0 1-.5-.5.501.501 0 0 1 .5-.5h2.5a.503.503 0 0 1 .5.5ZM61 133h-2v-2a.501.501 0 1 0-1 0v2.5a.501.501 0 0 0 .5.5H61a.503.503 0 0 0 .5-.5.501.501 0 0 0-.5-.5Zm8.5-2.5a.503.503 0 0 0-.5.5v2h-2a.503.503 0 0 0-.5.5.501.501 0 0 0 .5.5h2.5a.503.503 0 0 0 .5-.5V131a.501.501 0 0 0-.5-.5Zm-11-5a.503.503 0 0 0 .5-.5v-2h2a.503.503 0 0 0 .5-.5.501.501 0 0 0-.5-.5h-2.5a.503.503 0 0 0-.5.5v2.5a.501.501 0 0 0 .5.5Zm8 6h-5a.998.998 0 0 1-1-1v-5a1 1 0 0 1 1-1h5a.998.998 0 0 1 1 1v5a1 1 0 0 1-1 1Zm-5-1h5v-5h-5v5ZM70 160a.5.5 0 0 1-.5.5H64a.503.503 0 0 1-.5-.5.501.501 0 0 1 .5-.5h5.5a.503.503 0 0 1 .5.5Zm-6-3.5h5.5a.503.503 0 0 0 .5-.5.5.5 0 0 0-.5-.5H64a.503.503 0 0 0-.5.5.501.501 0 0 0 .5.5Zm5.5 7H64a.503.503 0 0 0-.5.5.501.501 0 0 0 .5.5h5.5a.503.503 0 0 0 .5-.5.5.5 0 0 0-.5-.5Zm-8.353-8.854-1.647 1.647-.646-.647a.499.499 0 0 0-.707 0 .5.5 0 0 0 0 .708l1 1a.505.505 0 0 0 .707 0l2-2a.5.5 0 0 0-.707-.708Zm0 4-1.647 1.647-.646-.647a.499.499 0 0 0-.707 0 .5.5 0 0 0 0 .708l1 1a.505.505 0 0 0 .707 0l2-2a.5.5 0 0 0-.707-.708Zm0 4-1.647 1.647-.646-.647a.503.503 0 0 0-.707 0 .506.506 0 0 0-.109.545.506.506 0 0 0 .109.163l1 1a.505.505 0 0 0 .707 0l2-2a.5.5 0 0 0-.707-.708ZM64 185.5a6.501 6.501 0 0 0-4.596 11.096 6.502 6.502 0 0 0 10-.985A6.499 6.499 0 0 0 64 185.5Zm-3.37 10.844a4.002 4.002 0 0 1 5.291-1.354 4.003 4.003 0 0 1 1.449 1.354 5.491 5.491 0 0 1-6.74 0ZM62 191.5a1.998 1.998 0 0 1 3.414-1.414 1.997 1.997 0 0 1-.303 3.077 1.998 1.998 0 0 1-2.525-.249A2 2 0 0 1 62 191.5Zm6.11 4.151a4.975 4.975 0 0 0-2.254-1.797 3.003 3.003 0 0 0 .979-3.339 2.998 2.998 0 0 0-5.67 0 3 3 0 0 0 .979 3.339 4.975 4.975 0 0 0-2.254 1.797 5.504 5.504 0 0 1 1.122-8.273 5.5 5.5 0 0 1 7.098 8.273Z" style="fill:#242424;fill:color(display-p3 .1412 .1412 .1412);fill-opacity:.6"></path><path fill="#242424" d="M69 218h-1.5v-.5a.501.501 0 1 0-1 0v.5h-5v-.5a.501.501 0 1 0-1 0v.5H59a.998.998 0 0 0-1 1v10a1 1 0 0 0 1 1h10a.998.998 0 0 0 1-1v-10a1 1 0 0 0-1-1Zm-8.5 1v.5a.501.501 0 1 0 1 0v-.5h5v.5a.501.501 0 1 0 1 0v-.5H69v2H59v-2h1.5Zm8.5 10H59v-7h10v7Z" opacity=".6" style="fill:#242424;fill:color(display-p3 .1412 .1412 .1412);fill-opacity:1"></path><path fill="#242424" fill-opacity=".6" d="M69.5 251.5H67v-.5a1.502 1.502 0 0 0-1.5-1.5h-3A1.501 1.501 0 0 0 61 251v.5h-2.5a.998.998 0 0 0-1 1v8a1 1 0 0 0 1 1h11a.998.998 0 0 0 1-1v-8a1 1 0 0 0-1-1ZM62 251a.501.501 0 0 1 .5-.5h3a.503.503 0 0 1 .5.5v.5h-4v-.5Zm7.5 1.5v2.601a11.51 11.51 0 0 1-11 0V252.5h11Zm0 8h-11v-4.273a12.513 12.513 0 0 0 11 0v4.273Zm-7-5.5a.501.501 0 0 1 .5-.5h2a.503.503 0 0 1 .5.5.501.501 0 0 1-.5.5h-2a.503.503 0 0 1-.5-.5ZM69.5 283h-11a.998.998 0 0 0-1 1v10a.99.99 0 0 0 .578.906.996.996 0 0 0 1.063-.142l.008-.007L61.156 293H69.5a.998.998 0 0 0 1-1v-8a.999.999 0 0 0-1-1Zm0 9h-8.344c-.235 0-.463.083-.643.234l-.008.007L58.5 294v-10h11v8Zm-8-5a.5.5 0 0 1 .5-.5h4a.503.503 0 0 1 .5.5.501.501 0 0 1-.5.5h-4a.503.503 0 0 1-.5-.5Zm0 2a.5.5 0 0 1 .5-.5h4a.503.503 0 0 1 .5.5.501.501 0 0 1-.5.5h-4a.503.503 0 0 1-.5-.5ZM61.2 322.9a.493.493 0 0 0 .555.03.487.487 0 0 0 .145-.13 3.25 3.25 0 0 1 5.2 0c.04.053.089.097.145.13a.486.486 0 0 0 .38.054.5.5 0 0 0 .275-.784 4.242 4.242 0 0 0-1.713-1.356 2.5 2.5 0 1 0-3.37 0A4.243 4.243 0 0 0 61.1 322.2a.5.5 0 0 0 .1.7ZM63 319a1.497 1.497 0 0 1 .926-1.386 1.503 1.503 0 0 1 2.045 1.093A1.5 1.5 0 1 1 63 319Zm6-5.5h-9a.998.998 0 0 0-1 1v1.5h-1a.503.503 0 0 0-.5.5.501.501 0 0 0 .5.5h1v2.5h-1a.503.503 0 0 0-.5.5.501.501 0 0 0 .5.5h1v2.5h-1a.503.503 0 0 0-.5.5.501.501 0 0 0 .5.5h1v1.5a1 1 0 0 0 1 1h9a.998.998 0 0 0 1-1v-11a1 1 0 0 0-1-1Zm0 12h-9v-11h9v11Z" style="fill:#242424;fill:color(display-p3 .1412 .1412 .1412);fill-opacity:.6"></path><g clip-path="url(#e)"><path fill="#FE4CA1" fill-opacity=".05" d="M0 0h48v32H0z" style="fill:#fe4ca1;fill:color(display-p3 .9961 .298 .6314);fill-opacity:.05" transform="translate(40 336)"></path><path fill="#242424" d="M70.916 346.085a2.004 2.004 0 0 0-2.18-.434 2.004 2.004 0 0 0-1.083 2.614c.1.242.248.463.434.649l.056.053-1.664 3.091a2.011 2.011 0 0 0-1.494.219l-1.261-1.261a2.002 2.002 0 0 0-1.85-3.015 2 2 0 0 0-1.721 1.233 2 2 0 0 0 .433 2.18l.056.053-1.665 3.092a1.996 1.996 0 0 0-2.439 1.551 2.002 2.002 0 0 0 1.962 2.39 1.998 1.998 0 0 0 1.962-2.39 2 2 0 0 0-.548-1.024l-.056-.053 1.665-3.091a2.004 2.004 0 0 0 1.494-.218l1.26 1.262a1.999 1.999 0 0 0 2.987 2.565 1.998 1.998 0 0 0 .095-3.017l1.665-3.092a1.997 1.997 0 0 0 2.438-2.332 2 2 0 0 0-.547-1.024v-.001Zm-11.71 11.123a.999.999 0 0 1-1.707-.708 1 1 0 1 1 1.708.708Zm2.087-6.5a1.003 1.003 0 0 1-.217-1.09 1.003 1.003 0 0 1 1.307-.541 1.004 1.004 0 0 1 .617.924.996.996 0 0 1-.617.924 1.003 1.003 0 0 1-1.09-.217Zm5.415 4a.998.998 0 0 1-1.414 0 .999.999 0 1 1 1.414 0Zm3.5-6.5a1 1 0 1 1-.706-1.709 1.005 1.005 0 0 1 .707.293.997.997 0 0 1 .217 1.09.997.997 0 0 1-.217.325v.001Z" style="fill:#242424;fill:color(display-p3 .1412 .1412 .1412);fill-opacity:1"></path><rect width="2" height="32" x="41.023" y="336" fill="#FE4CA1" rx="1" style="fill:#fe4ca1;fill:color(display-p3 .9966 .2968 .6327);fill-opacity:1"></rect></g><mask id="f" fill="#fff"><path d="M88 40h976v53H88V40Z"></path></mask><path fill="#E7E5DF" fill-opacity=".6" d="M1064 92.4H88v1.2h976v-1.2Z" mask="url(#f)" style="fill:#e7e5df;fill:color(display-p3 .9059 .898 .8745);fill-opacity:.6"></path><path fill="#242424" d="M108.959 63.273h1.598l2.778 6.784h.103l2.778-6.784h1.598V72h-1.253v-6.315h-.081l-2.574 6.302h-1.04l-2.573-6.307h-.081V72h-1.253v-8.727Zm13.488 8.86c-.645 0-1.2-.139-1.666-.414a2.806 2.806 0 0 1-1.074-1.172c-.25-.506-.375-1.098-.375-1.777 0-.67.125-1.261.375-1.773.253-.511.605-.91 1.057-1.197.454-.287.986-.43 1.594-.43a3.2 3.2 0 0 1 1.073.183c.347.122.658.314.934.575.275.261.493.6.652 1.018.159.415.238.92.238 1.513v.452h-5.203v-.955h3.955c0-.335-.068-.632-.205-.89a1.545 1.545 0 0 0-.575-.618 1.607 1.607 0 0 0-.861-.226c-.358 0-.67.088-.937.264-.265.173-.469.4-.614.682a1.969 1.969 0 0 0-.213.908v.745c0 .438.077.81.23 1.117.156.307.374.541.652.703.278.159.604.239.976.239.241 0 .462-.034.66-.103a1.359 1.359 0 0 0 .848-.831l1.206.218c-.096.355-.27.666-.52.933-.247.264-.558.47-.933.618a3.492 3.492 0 0 1-1.274.217Zm7.277-6.678v1.022h-3.575v-1.023h3.575Zm-2.616-1.569h1.274v6.192c0 .247.037.433.111.558a.58.58 0 0 0 .285.252c.12.042.249.064.388.064.102 0 .192-.007.269-.022l.179-.034.23 1.053a2.138 2.138 0 0 1-.316.085 2.486 2.486 0 0 1-.511.051 2.24 2.24 0 0 1-.937-.179 1.609 1.609 0 0 1-.704-.58c-.179-.26-.268-.589-.268-.984v-6.456ZM131.134 72v-6.546h1.231v1.04h.069a1.58 1.58 0 0 1 .63-.83 1.806 1.806 0 0 1 1.032-.308 5.445 5.445 0 0 1 .541.03v1.22a2.285 2.285 0 0 0-.273-.048 2.613 2.613 0 0 0-.392-.03c-.301 0-.57.064-.805.192a1.422 1.422 0 0 0-.759 1.283V72h-1.274Zm4.605 0v-6.546h1.274V72h-1.274Zm.644-7.555a.81.81 0 0 1-.571-.222.722.722 0 0 1-.235-.537c0-.21.079-.39.235-.537a.801.801 0 0 1 .571-.226.79.79 0 0 1 .567.226.706.706 0 0 1 .238.537.714.714 0 0 1-.238.537.798.798 0 0 1-.567.222Zm5.102 7.687c-.634 0-1.179-.143-1.637-.43a2.85 2.85 0 0 1-1.048-1.198c-.244-.508-.366-1.09-.366-1.747 0-.665.125-1.251.375-1.76.25-.511.602-.91 1.056-1.197.455-.287.99-.43 1.607-.43.497 0 .94.092 1.329.276.39.182.704.438.942.767.242.33.385.715.431 1.155h-1.24a1.494 1.494 0 0 0-.469-.792c-.242-.222-.565-.333-.972-.333-.355 0-.666.094-.933.281-.264.185-.47.45-.618.793-.148.341-.221.744-.221 1.21 0 .477.072.89.217 1.236.145.347.349.615.613.806.268.19.581.285.942.285.242 0 .46-.044.657-.132.198-.091.365-.22.498-.388.136-.168.232-.37.286-.605h1.24a2.417 2.417 0 0 1-.414 1.133c-.23.333-.538.594-.924.785-.384.19-.834.285-1.351.285Zm8.956-5.08-1.155.205a1.364 1.364 0 0 0-.23-.422 1.13 1.13 0 0 0-.418-.328 1.51 1.51 0 0 0-.66-.128c-.361 0-.662.081-.903.243-.242.16-.363.365-.363.618 0 .219.081.395.243.529.162.133.424.242.784.328l1.04.238c.602.14 1.051.354 1.347.644.295.29.443.666.443 1.129 0 .392-.114.741-.341 1.048-.224.304-.538.543-.942.716-.4.174-.865.26-1.393.26-.733 0-1.331-.156-1.794-.469-.463-.315-.747-.762-.853-1.342l1.232-.188c.077.322.234.564.473.73.239.161.55.242.933.242.418 0 .752-.087 1.002-.26.25-.176.375-.39.375-.643a.67.67 0 0 0-.23-.516c-.151-.14-.383-.244-.695-.315l-1.108-.243c-.611-.14-1.063-.361-1.355-.665-.29-.304-.435-.689-.435-1.155 0-.386.108-.724.324-1.014a2.12 2.12 0 0 1 .895-.677 3.267 3.267 0 0 1 1.308-.248c.708 0 1.264.154 1.671.46.406.305.674.712.805 1.224Z" style="fill:#242424;fill:color(display-p3 .1412 .1412 .1412);fill-opacity:1"></path><g clip-path="url(#g)"><path fill="#FBFBFB" d="M0 0h976v534H0z" style="fill:#fbfbfb;fill:color(display-p3 .9843 .9843 .9843);fill-opacity:1" transform="translate(88 93)"></path><rect width="944" height="253" x="104" y="141" fill="#fff" rx="8" style="fill:#fff;fill-opacity:1"></rect><rect width="943.4" height="252.4" x="104.3" y="141.3" stroke="#E7E5DF" stroke-opacity=".6" stroke-width=".6" rx="7.7" style="stroke:#e7e5df;stroke:color(display-p3 .9059 .898 .8745);stroke-opacity:.6"></rect><path fill="#242424" d="M133.719 171.565a1.245 1.245 0 0 0-.563-.937c-.329-.225-.744-.337-1.244-.337a2.31 2.31 0 0 0-.929.171 1.42 1.42 0 0 0-.609.46 1.085 1.085 0 0 0-.213.66c0 .208.048.387.144.537.1.151.229.277.388.38.162.099.335.183.52.251.185.065.362.119.533.162l.852.222c.278.068.564.16.857.277a3.4 3.4 0 0 1 .813.46c.25.19.452.426.606.707.156.281.234.618.234 1.01 0 .494-.128.933-.384 1.317-.252.383-.62.686-1.103.907-.48.222-1.061.333-1.743.333-.654 0-1.219-.104-1.696-.311-.477-.208-.851-.502-1.121-.882-.27-.384-.419-.838-.447-1.364h1.321c.025.315.128.578.306.788.182.208.414.363.695.465.284.099.595.149.933.149.372 0 .703-.058.993-.175.293-.119.523-.284.691-.494.167-.213.251-.462.251-.746a.916.916 0 0 0-.222-.635 1.638 1.638 0 0 0-.592-.409 5.746 5.746 0 0 0-.839-.285l-1.032-.282c-.699-.19-1.253-.47-1.662-.839-.406-.369-.609-.858-.609-1.466 0-.503.136-.942.409-1.317a2.684 2.684 0 0 1 1.108-.873 3.8 3.8 0 0 1 1.577-.316c.591 0 1.112.104 1.564.311.454.208.812.493 1.074.857.261.361.397.776.409 1.244h-1.27Zm5.617 6.567c-.633 0-1.179-.143-1.636-.43a2.844 2.844 0 0 1-1.048-1.198c-.245-.508-.367-1.091-.367-1.747 0-.665.125-1.251.375-1.76.25-.511.602-.91 1.057-1.197.455-.287.99-.431 1.607-.431.497 0 .94.093 1.329.277.389.182.703.438.942.767.241.33.385.715.43 1.155h-1.24a1.477 1.477 0 0 0-.469-.792c-.241-.222-.565-.333-.971-.333-.355 0-.666.094-.933.281a1.799 1.799 0 0 0-.618.793c-.148.341-.222.744-.222 1.21 0 .478.073.889.217 1.236.145.347.35.615.614.805.267.191.581.286.942.286.241 0 .46-.044.656-.132.199-.091.365-.22.499-.388.136-.168.231-.369.285-.605h1.24a2.403 2.403 0 0 1-.413 1.133c-.23.333-.538.594-.925.785-.383.19-.834.285-1.351.285Zm5.326-4.018V178h-1.274v-8.727h1.257v3.247h.081c.153-.352.388-.632.703-.84.315-.207.727-.311 1.236-.311.449 0 .841.093 1.176.277.338.185.599.461.784.827.187.364.281.818.281 1.364V178h-1.274v-4.01c0-.48-.123-.852-.371-1.116-.247-.267-.591-.401-1.031-.401-.301 0-.571.064-.81.192a1.391 1.391 0 0 0-.558.562c-.133.245-.2.54-.2.887Zm8.766 4.018c-.645 0-1.201-.138-1.667-.413a2.8 2.8 0 0 1-1.073-1.172c-.25-.506-.376-1.098-.376-1.777 0-.671.126-1.261.376-1.773a2.91 2.91 0 0 1 1.056-1.197c.455-.287.986-.431 1.594-.431.369 0 .727.061 1.074.184.347.122.658.313.933.575.276.261.493.601.652 1.018.159.415.239.919.239 1.513v.452h-5.203v-.955h3.954c0-.335-.068-.632-.204-.89a1.54 1.54 0 0 0-.576-.618 1.601 1.601 0 0 0-.86-.226c-.358 0-.671.088-.938.264a1.777 1.777 0 0 0-.614.682 1.968 1.968 0 0 0-.213.908v.745c0 .438.077.81.23 1.117.157.307.374.541.652.703.279.159.604.239.976.239.242 0 .462-.035.661-.103a1.37 1.37 0 0 0 .848-.831l1.206.218c-.097.355-.27.666-.52.933-.247.264-.558.47-.933.618a3.49 3.49 0 0 1-1.274.217Zm6.672-.004c-.529 0-1-.135-1.415-.405-.412-.273-.736-.661-.972-1.163-.233-.506-.349-1.113-.349-1.82 0-.707.118-1.312.354-1.815.238-.503.565-.888.98-1.155a2.55 2.55 0 0 1 1.41-.401c.407 0 .733.069.98.205.25.133.444.29.58.469.139.179.247.336.324.473h.077v-3.243h1.274V178h-1.245v-1.018h-.106a3.41 3.41 0 0 1-.333.477 1.853 1.853 0 0 1-.588.469c-.25.133-.573.2-.971.2Zm.281-1.087c.367 0 .676-.096.929-.29.256-.196.449-.467.58-.813.133-.347.2-.751.2-1.211 0-.454-.065-.852-.196-1.193a1.764 1.764 0 0 0-.575-.797c-.253-.19-.566-.285-.938-.285-.383 0-.703.099-.959.298-.255.199-.449.47-.579.814a3.314 3.314 0 0 0-.192 1.163c0 .438.065.831.196 1.181.131.349.324.626.579.831.259.201.577.302.955.302Zm8.927-1.755v-3.831h1.278V178h-1.253v-1.134h-.068c-.151.35-.392.641-.725.874-.329.23-.74.345-1.231.345-.421 0-.793-.092-1.117-.277a1.942 1.942 0 0 1-.758-.831c-.182-.366-.273-.819-.273-1.359v-4.163h1.274v4.009c0 .447.124.802.371 1.066s.568.396.963.396c.239 0 .476-.06.712-.179.238-.119.436-.3.592-.541.159-.242.237-.548.235-.92Zm4.264-6.013V178h-1.274v-8.727h1.274Zm4.535 8.859c-.645 0-1.2-.138-1.666-.413a2.808 2.808 0 0 1-1.074-1.172c-.25-.506-.375-1.098-.375-1.777 0-.671.125-1.261.375-1.773.253-.511.605-.91 1.057-1.197.455-.287.986-.431 1.594-.431.369 0 .727.061 1.074.184.346.122.657.313.933.575.275.261.493.601.652 1.018.159.415.238.919.238 1.513v.452h-5.203v-.955h3.955a1.87 1.87 0 0 0-.205-.89 1.537 1.537 0 0 0-.575-.618 1.603 1.603 0 0 0-.861-.226c-.358 0-.67.088-.937.264a1.777 1.777 0 0 0-.614.682 1.968 1.968 0 0 0-.213.908v.745c0 .438.077.81.23 1.117.156.307.374.541.652.703.279.159.604.239.976.239.242 0 .462-.035.661-.103a1.37 1.37 0 0 0 .848-.831l1.206.218c-.097.355-.27.666-.52.933-.248.264-.559.47-.934.618a3.486 3.486 0 0 1-1.274.217Zm6.672-.004c-.528 0-1-.135-1.414-.405-.412-.273-.736-.661-.972-1.163-.233-.506-.349-1.113-.349-1.82 0-.707.118-1.312.353-1.815.239-.503.566-.888.98-1.155a2.55 2.55 0 0 1 1.411-.401c.406 0 .733.069.98.205.25.133.443.29.58.469.139.179.247.336.324.473h.076v-3.243h1.274V178h-1.244v-1.018h-.106a3.41 3.41 0 0 1-.333.477 1.853 1.853 0 0 1-.588.469c-.25.133-.574.2-.972.2Zm.282-1.087c.366 0 .676-.096.929-.29.255-.196.449-.467.579-.813.134-.347.201-.751.201-1.211a3.34 3.34 0 0 0-.196-1.193 1.759 1.759 0 0 0-.576-.797c-.253-.19-.565-.285-.937-.285-.384 0-.703.099-.959.298-.256.199-.449.47-.58.814a3.338 3.338 0 0 0-.191 1.163c0 .438.065.831.196 1.181.13.349.323.626.579.831.259.201.577.302.955.302Z" style="fill:#242424;fill:color(display-p3 .1412 .1412 .1412);fill-opacity:1"></path><rect width="18" height="18" x="520" y="165" fill="#242424" fill-opacity=".03" rx="3.6" style="fill:#242424;fill:color(display-p3 .1412 .1412 .1412);fill-opacity:.03"></rect><rect width="17.46" height="17.46" x="520.27" y="165.27" stroke="#000" stroke-opacity=".1" stroke-width=".54" rx="3.33" style="stroke:#000;stroke-opacity:.1"></rect><path fill="#000" d="M533.629 175.257v2.625c0 .199-.079.39-.22.53a.747.747 0 0 1-.53.22h-7.5a.747.747 0 0 1-.53-.22.747.747 0 0 1-.22-.53v-2.625c0-.1.039-.195.11-.265a.372.372 0 0 1 .53 0c.07.07.11.165.11.265v2.625h7.5v-2.625c0-.1.039-.195.11-.265a.372.372 0 0 1 .53 0c.07.07.11.165.11.265Zm-4.765.265a.37.37 0 0 0 .53 0l1.875-1.875a.375.375 0 1 0-.53-.53l-1.235 1.235v-4.345a.375.375 0 0 0-.75 0v4.345l-1.235-1.235a.372.372 0 0 0-.53 0 .372.372 0 0 0 0 .53l1.875 1.875Z" style="fill:#000;fill-opacity:1"></path><path fill="#242424" fill-opacity=".6" d="M129.753 202v-.575l2.16-2.365c.254-.277.463-.518.627-.723.164-.206.285-.4.364-.581a1.41 1.41 0 0 0 .121-.576 1.058 1.058 0 0 0-.613-.987 1.447 1.447 0 0 0-.639-.138c-.252 0-.471.053-.659.157a1.077 1.077 0 0 0-.431.431c-.1.186-.15.403-.15.652h-.755c0-.383.089-.72.266-1.009.176-.29.417-.516.722-.678a2.177 2.177 0 0 1 1.032-.243c.384 0 .724.081 1.02.243.296.162.528.38.696.655.169.275.253.581.253.917 0 .241-.044.477-.131.707a3.102 3.102 0 0 1-.448.764c-.21.279-.503.62-.878 1.022l-1.471 1.573v.051h3.043V202h-4.129Zm7.494.089a2.25 2.25 0 0 1-1.013-.223 1.882 1.882 0 0 1-.722-.614 1.672 1.672 0 0 1-.297-.888h.767c.03.296.164.541.402.735.241.191.529.287.863.287a1.336 1.336 0 0 0 1.212-.706c.121-.222.182-.472.182-.751 0-.286-.063-.54-.189-.764a1.381 1.381 0 0 0-.511-.534 1.444 1.444 0 0 0-.745-.198 2.05 2.05 0 0 0-.617.093 1.72 1.72 0 0 0-.52.24l-.742-.09.396-3.221h3.401v.703h-2.736l-.23 1.93h.038c.135-.106.303-.195.505-.265.203-.071.414-.106.633-.106a2.015 2.015 0 0 1 1.812 1.068c.181.33.272.707.272 1.131 0 .418-.094.791-.281 1.119a2.055 2.055 0 0 1-.767.773 2.187 2.187 0 0 1-1.113.281ZM129.603 232v-.575l2.161-2.365c.253-.277.462-.518.626-.723.164-.206.286-.4.365-.581a1.41 1.41 0 0 0 .121-.576 1.058 1.058 0 0 0-.614-.987 1.441 1.441 0 0 0-.639-.138c-.251 0-.471.053-.658.157a1.08 1.08 0 0 0-.432.431c-.1.186-.15.403-.15.652h-.754c0-.383.088-.72.265-1.009.177-.29.418-.516.722-.678a2.178 2.178 0 0 1 1.033-.243c.383 0 .723.081 1.019.243.296.162.529.38.697.655.168.275.253.581.253.917 0 .241-.044.477-.131.707a3.167 3.167 0 0 1-.448.764c-.211.279-.504.62-.879 1.022l-1.47 1.573v.051h3.043V232h-4.13Zm7.585.089c-.482 0-.892-.131-1.231-.393-.339-.264-.598-.646-.777-1.147-.179-.503-.268-1.11-.268-1.822 0-.707.089-1.311.268-1.812.182-.503.441-.886.78-1.15.341-.267.75-.4 1.228-.4.477 0 .885.133 1.224.4.34.264.6.647.779 1.15.182.501.272 1.105.272 1.812 0 .712-.089 1.319-.268 1.822-.179.501-.438.883-.777 1.147-.339.262-.749.393-1.23.393Zm0-.703c.477 0 .848-.23 1.112-.69.264-.46.396-1.116.396-1.969 0-.566-.061-1.049-.182-1.448-.119-.398-.292-.702-.518-.91a1.142 1.142 0 0 0-.808-.314c-.474 0-.843.234-1.11.7-.266.465-.399 1.122-.399 1.972 0 .567.06 1.049.179 1.445.119.396.291.698.515.904.225.207.497.31.815.31ZM133.32 255.455V262h-.793v-5.714h-.038l-1.598 1.061v-.806l1.636-1.086h.793Zm3.927 6.634a2.25 2.25 0 0 1-1.013-.223 1.882 1.882 0 0 1-.722-.614 1.672 1.672 0 0 1-.297-.888h.767c.03.296.164.541.402.735.241.191.529.287.863.287a1.336 1.336 0 0 0 1.212-.706c.121-.222.182-.472.182-.751 0-.286-.063-.54-.189-.764a1.381 1.381 0 0 0-.511-.534 1.444 1.444 0 0 0-.745-.198 2.05 2.05 0 0 0-.617.093 1.72 1.72 0 0 0-.52.24l-.742-.09.396-3.221h3.401v.703h-2.736l-.23 1.93h.038c.135-.106.303-.195.505-.265.203-.071.414-.106.633-.106a2.015 2.015 0 0 1 1.812 1.068c.181.33.272.707.272 1.131 0 .418-.094.791-.281 1.119a2.055 2.055 0 0 1-.767.773 2.187 2.187 0 0 1-1.113.281ZM133.17 285.455V292h-.793v-5.714h-.038l-1.598 1.061v-.806l1.636-1.086h.793Zm4.018 6.634c-.482 0-.892-.131-1.231-.393-.339-.264-.598-.646-.777-1.147-.179-.503-.268-1.11-.268-1.822 0-.707.089-1.311.268-1.812.182-.503.441-.886.78-1.15.341-.267.75-.4 1.228-.4.477 0 .885.133 1.224.4.34.264.6.647.779 1.15.182.501.272 1.105.272 1.812 0 .712-.089 1.319-.268 1.822-.179.501-.438.883-.777 1.147-.339.262-.749.393-1.23.393Zm0-.703c.477 0 .848-.23 1.112-.69.264-.46.396-1.116.396-1.969 0-.566-.061-1.049-.182-1.448-.119-.398-.292-.702-.518-.91a1.142 1.142 0 0 0-.808-.314c-.474 0-.843.234-1.11.7-.266.465-.399 1.122-.399 1.972 0 .567.06 1.049.179 1.445.119.396.291.698.515.904.225.207.497.31.815.31ZM137.247 322.089a2.25 2.25 0 0 1-1.013-.223 1.882 1.882 0 0 1-.722-.614 1.672 1.672 0 0 1-.297-.888h.767c.03.296.164.541.402.735.241.191.529.287.863.287a1.336 1.336 0 0 0 1.212-.706c.121-.222.182-.472.182-.751 0-.286-.063-.54-.189-.764a1.381 1.381 0 0 0-.511-.534 1.444 1.444 0 0 0-.745-.198 2.05 2.05 0 0 0-.617.093 1.72 1.72 0 0 0-.52.24l-.742-.09.396-3.221h3.401v.703h-2.736l-.23 1.93h.038c.135-.106.303-.195.505-.265.203-.071.414-.106.633-.106a2.015 2.015 0 0 1 1.812 1.068c.181.33.272.707.272 1.131 0 .418-.094.791-.281 1.119a2.055 2.055 0 0 1-.767.773 2.187 2.187 0 0 1-1.113.281ZM137.188 352.089c-.482 0-.892-.131-1.231-.393-.339-.264-.598-.646-.777-1.147-.179-.503-.268-1.11-.268-1.822 0-.707.089-1.311.268-1.812.182-.503.441-.886.78-1.15.341-.267.75-.4 1.228-.4.477 0 .885.133 1.224.4.34.264.6.647.779 1.15.182.501.272 1.105.272 1.812 0 .712-.089 1.319-.268 1.822-.179.501-.438.883-.777 1.147-.339.262-.749.393-1.23.393Zm0-.703c.477 0 .848-.23 1.112-.69.264-.46.396-1.116.396-1.969 0-.566-.061-1.049-.182-1.448-.119-.398-.292-.702-.518-.91a1.142 1.142 0 0 0-.808-.314c-.474 0-.843.234-1.11.7-.266.465-.399 1.122-.399 1.972 0 .567.06 1.049.179 1.445.119.396.291.698.515.904.225.207.497.31.815.31Z" style="fill:#242424;fill:color(display-p3 .1412 .1412 .1412);fill-opacity:.6"></path><path stroke="#242424" stroke-opacity=".1" stroke-width=".6" d="M148 199h390.102M148 229h390.102M148 259h390.102M148 289h390.102M148 319h390.102M148 349h390.102" style="stroke:#242424;stroke:color(display-p3 .1412 .1412 .1412);stroke-opacity:.1"></path><path stroke="#E9E9E9" stroke-width=".6" d="M173.833 357v-8" style="stroke:#e9e9e9;stroke:color(display-p3 .9125 .9125 .9125);stroke-opacity:1"></path><path fill="#242424" fill-opacity=".6" d="M162.807 363.455V370h-.793v-5.714h-.038l-1.598 1.061v-.806l1.636-1.086h.793Zm3.979 6.634c-.439 0-.827-.077-1.164-.233a1.907 1.907 0 0 1-.783-.649 1.634 1.634 0 0 1-.278-.946 1.754 1.754 0 0 1 .163-.767c.111-.236.262-.433.454-.591.194-.16.41-.261.649-.304v-.038a1.266 1.266 0 0 1-.748-.527 1.602 1.602 0 0 1-.275-.93c-.002-.333.082-.63.253-.892.17-.262.405-.469.703-.62.3-.151.642-.227 1.026-.227.379 0 .718.076 1.016.227.298.151.533.358.703.62a1.6 1.6 0 0 1 .262.892 1.624 1.624 0 0 1-.284.93c-.186.27-.432.446-.738.527v.038c.236.043.449.144.639.304a1.774 1.774 0 0 1 .626 1.358 1.656 1.656 0 0 1-.287.946 1.907 1.907 0 0 1-.783.649 2.69 2.69 0 0 1-1.154.233Zm0-.703c.296 0 .552-.048.767-.143.215-.096.381-.232.498-.406a1.09 1.09 0 0 0 .179-.614 1.18 1.18 0 0 0-.191-.655 1.308 1.308 0 0 0-.515-.448 1.622 1.622 0 0 0-.738-.163c-.279 0-.529.055-.748.163a1.308 1.308 0 0 0-.515.448 1.158 1.158 0 0 0-.182.655c-.002.234.054.439.17.614.117.174.284.31.501.406.218.095.475.143.774.143Zm0-3.106c.234 0 .442-.047.623-.141.183-.094.327-.225.431-.393a1.11 1.11 0 0 0 .16-.591 1.093 1.093 0 0 0-.156-.579 1.018 1.018 0 0 0-.425-.383 1.382 1.382 0 0 0-.633-.138 1.42 1.42 0 0 0-.643.138.989.989 0 0 0-.425.383c-.1.164-.149.357-.147.579-.002.226.048.423.15.591.105.168.249.299.432.393.183.094.394.141.633.141Zm6.095 3.72v-6.545h3.925v.703h-3.132v2.211h2.838v.703h-2.838V370h-.793Zm6.878.102c-.473 0-.881-.104-1.224-.313a2.1 2.1 0 0 1-.789-.882c-.184-.379-.275-.82-.275-1.323s.091-.946.275-1.33c.185-.385.443-.686.773-.901a2.08 2.08 0 0 1 1.163-.326c.256 0 .509.043.758.128s.476.224.681.415a2 2 0 0 1 .489.755c.121.313.182.698.182 1.157v.319h-3.784v-.652h3.017c0-.277-.056-.524-.166-.741a1.257 1.257 0 0 0-.467-.515 1.304 1.304 0 0 0-.71-.188c-.3 0-.56.074-.779.223a1.464 1.464 0 0 0-.502.576 1.69 1.69 0 0 0-.176.76v.435c0 .371.064.685.192.943.13.255.31.45.54.585.23.132.498.198.802.198.198 0 .377-.028.537-.083.162-.058.302-.143.419-.256.117-.115.208-.258.271-.428l.729.204a1.607 1.607 0 0 1-.387.652c-.181.186-.404.33-.671.435a2.491 2.491 0 0 1-.898.153Zm3.283-.102v-6.545h.754v2.416h.064c.055-.085.132-.194.23-.326.1-.134.243-.254.428-.358.188-.107.441-.16.761-.16.413 0 .777.103 1.093.31.315.207.561.5.738.879.177.379.265.827.265 1.342 0 .52-.088.971-.265 1.352a2.098 2.098 0 0 1-.735.882c-.313.207-.674.31-1.083.31-.316 0-.568-.052-.758-.156a1.406 1.406 0 0 1-.438-.361 5.03 5.03 0 0 1-.236-.339h-.09V370h-.728Zm.741-2.455c0 .371.054.698.163.982.109.281.267.501.476.661.209.158.465.237.767.237.316 0 .579-.083.79-.25.213-.168.373-.394.479-.677.109-.286.163-.603.163-.953 0-.345-.053-.656-.16-.933a1.439 1.439 0 0 0-.476-.661c-.211-.164-.476-.246-.796-.246-.307 0-.564.077-.773.233a1.391 1.391 0 0 0-.473.645c-.107.275-.16.596-.16.962Z" style="fill:#242424;fill:color(display-p3 .1412 .1412 .1412);fill-opacity:.6"></path><path stroke="#E9E9E9" stroke-width=".6" d="M241.5 357v-8" style="stroke:#e9e9e9;stroke:color(display-p3 .9125 .9125 .9125);stroke-opacity:1"></path><path fill="#242424" fill-opacity=".6" d="M230.438 363.455V370h-.792v-5.714h-.039l-1.598 1.061v-.806l1.637-1.086h.792Zm3.966-.09c.269.002.537.053.806.153.268.101.513.267.735.499.222.23.399.544.534.943.134.398.201.898.201 1.499a6.53 6.53 0 0 1-.166 1.55 3.549 3.549 0 0 1-.473 1.138 2.102 2.102 0 0 1-.748.703c-.292.16-.622.239-.991.239-.366 0-.693-.072-.981-.217a1.918 1.918 0 0 1-.703-.61 2.14 2.14 0 0 1-.349-.911h.78c.071.3.21.549.419.745.211.193.489.29.834.29.505 0 .904-.22 1.195-.661.295-.441.442-1.064.442-1.87h-.052a2.003 2.003 0 0 1-.425.464 1.863 1.863 0 0 1-1.185.405c-.375 0-.72-.092-1.033-.278a2.11 2.11 0 0 1-.748-.77 2.25 2.25 0 0 1-.278-1.125c0-.4.09-.767.269-1.099a2.07 2.07 0 0 1 .76-.799c.329-.198.714-.294 1.157-.288Zm0 .703c-.268 0-.51.067-.725.202a1.446 1.446 0 0 0-.508.536 1.511 1.511 0 0 0-.186.745c0 .273.06.521.179.745.122.221.287.398.496.53.211.13.45.195.719.195a1.36 1.36 0 0 0 1.023-.447c.132-.141.235-.299.31-.476.074-.179.111-.366.111-.56 0-.255-.061-.495-.185-.719a1.47 1.47 0 0 0-.505-.543 1.304 1.304 0 0 0-.729-.208Zm6.179 5.932v-6.545h3.925v.703h-3.132v2.211h2.838v.703h-2.838V370h-.793Zm6.878.102c-.473 0-.881-.104-1.224-.313a2.108 2.108 0 0 1-.79-.882c-.183-.379-.274-.82-.274-1.323s.091-.946.274-1.33c.186-.385.444-.686.774-.901.332-.217.72-.326 1.163-.326.256 0 .508.043.758.128.249.085.476.224.68.415.205.19.368.441.489.755.122.313.183.698.183 1.157v.319h-3.784v-.652h3.017c0-.277-.056-.524-.167-.741a1.248 1.248 0 0 0-.466-.515 1.304 1.304 0 0 0-.71-.188c-.3 0-.56.074-.78.223a1.47 1.47 0 0 0-.501.576c-.118.236-.176.49-.176.76v.435c0 .371.064.685.192.943.13.255.31.45.54.585.23.132.497.198.802.198.198 0 .377-.028.537-.083.162-.058.301-.143.419-.256.117-.115.207-.258.271-.428l.729.204a1.619 1.619 0 0 1-.387.652c-.181.186-.405.33-.671.435a2.495 2.495 0 0 1-.898.153Zm3.282-.102v-6.545h.755v2.416h.063c.056-.085.133-.194.231-.326.1-.134.242-.254.428-.358.187-.107.441-.16.761-.16.413 0 .777.103 1.093.31.315.207.561.5.738.879.177.379.265.827.265 1.342 0 .52-.088.971-.265 1.352a2.098 2.098 0 0 1-.735.882c-.313.207-.675.31-1.084.31-.315 0-.568-.052-.757-.156a1.406 1.406 0 0 1-.438-.361 5.515 5.515 0 0 1-.237-.339h-.089V370h-.729Zm.742-2.455c0 .371.054.698.163.982.108.281.267.501.476.661.209.158.464.237.767.237.315 0 .579-.083.789-.25a1.52 1.52 0 0 0 .48-.677c.109-.286.163-.603.163-.953 0-.345-.053-.656-.16-.933a1.439 1.439 0 0 0-.476-.661c-.211-.164-.476-.246-.796-.246-.307 0-.565.077-.773.233a1.391 1.391 0 0 0-.473.645c-.107.275-.16.596-.16.962Z" style="fill:#242424;fill:color(display-p3 .1412 .1412 .1412);fill-opacity:.6"></path><path stroke="#E9E9E9" stroke-width=".6" d="M309.167 357v-8" style="stroke:#e9e9e9;stroke:color(display-p3 .9125 .9125 .9125);stroke-opacity:1"></path><path fill="#242424" fill-opacity=".6" d="M295.167 370v-.575l2.16-2.365c.254-.277.462-.518.626-.723.165-.206.286-.4.365-.581a1.41 1.41 0 0 0 .121-.576 1.058 1.058 0 0 0-.613-.987 1.449 1.449 0 0 0-.64-.138c-.251 0-.47.053-.658.157a1.077 1.077 0 0 0-.431.431 1.345 1.345 0 0 0-.151.652h-.754c0-.383.089-.72.265-1.009.177-.29.418-.516.723-.678a2.174 2.174 0 0 1 1.032-.243c.383 0 .723.081 1.019.243.297.162.529.38.697.655.169.275.253.581.253.917 0 .241-.044.477-.131.707a3.167 3.167 0 0 1-.448.764c-.211.279-.504.62-.879 1.022l-1.47 1.573v.051h3.043V370h-4.129Zm7.584.089c-.482 0-.892-.131-1.231-.393-.339-.264-.597-.646-.776-1.147-.179-.503-.269-1.11-.269-1.822 0-.707.09-1.311.269-1.812.181-.503.441-.886.779-1.15.341-.267.75-.4 1.228-.4.477 0 .885.133 1.224.4.341.264.601.647.78 1.15.181.501.271 1.105.271 1.812 0 .712-.089 1.319-.268 1.822-.179.501-.438.883-.777 1.147-.339.262-.749.393-1.23.393Zm0-.703c.477 0 .848-.23 1.112-.69.264-.46.396-1.116.396-1.969 0-.566-.061-1.049-.182-1.448-.119-.398-.292-.702-.518-.91a1.14 1.14 0 0 0-.808-.314c-.473 0-.843.234-1.109.7-.267.465-.4 1.122-.4 1.972 0 .567.06 1.049.179 1.445.119.396.291.698.515.904.226.207.497.31.815.31Zm6.136.614v-6.545h3.925v.703h-3.132v2.211h2.838v.703h-2.838V370h-.793Zm6.878.102c-.473 0-.881-.104-1.224-.313a2.108 2.108 0 0 1-.79-.882c-.183-.379-.274-.82-.274-1.323s.091-.946.274-1.33c.186-.385.444-.686.774-.901.332-.217.72-.326 1.163-.326.256 0 .508.043.758.128.249.085.476.224.68.415.205.19.368.441.489.755.122.313.183.698.183 1.157v.319h-3.785v-.652h3.018c0-.277-.056-.524-.167-.741a1.248 1.248 0 0 0-.466-.515 1.307 1.307 0 0 0-.71-.188c-.3 0-.56.074-.78.223a1.47 1.47 0 0 0-.501.576c-.118.236-.176.49-.176.76v.435c0 .371.064.685.192.943.13.255.31.45.54.585.23.132.497.198.802.198.198 0 .377-.028.537-.083a1.15 1.15 0 0 0 .418-.256c.118-.115.208-.258.272-.428l.729.204a1.619 1.619 0 0 1-.387.652c-.181.186-.405.33-.671.435a2.495 2.495 0 0 1-.898.153Zm3.282-.102v-6.545h.754v2.416h.064c.056-.085.132-.194.23-.326.101-.134.243-.254.429-.358.187-.107.441-.16.76-.16.414 0 .778.103 1.093.31.316.207.562.5.739.879.177.379.265.827.265 1.342 0 .52-.088.971-.265 1.352a2.098 2.098 0 0 1-.735.882c-.314.207-.675.31-1.084.31-.315 0-.568-.052-.757-.156a1.406 1.406 0 0 1-.438-.361 5.515 5.515 0 0 1-.237-.339h-.089V370h-.729Zm.742-2.455c0 .371.054.698.163.982.108.281.267.501.476.661.209.158.464.237.767.237.315 0 .578-.083.789-.25.213-.168.373-.394.48-.677.108-.286.163-.603.163-.953 0-.345-.054-.656-.16-.933a1.439 1.439 0 0 0-.476-.661c-.211-.164-.476-.246-.796-.246-.307 0-.565.077-.774.233a1.405 1.405 0 0 0-.473.645 2.668 2.668 0 0 0-.159.962Z" style="fill:#242424;fill:color(display-p3 .1412 .1412 .1412);fill-opacity:.6"></path><path stroke="#E9E9E9" stroke-width=".6" d="M376.833 357v-8" style="stroke:#e9e9e9;stroke:color(display-p3 .9125 .9125 .9125);stroke-opacity:1"></path><path fill="#242424" fill-opacity=".6" d="M363.554 370v-.575l2.16-2.365c.254-.277.463-.518.627-.723.164-.206.285-.4.364-.581.081-.184.122-.375.122-.576a1.058 1.058 0 0 0-.614-.987 1.447 1.447 0 0 0-.639-.138c-.252 0-.471.053-.659.157a1.077 1.077 0 0 0-.431.431c-.1.186-.15.403-.15.652h-.755c0-.383.089-.72.266-1.009.177-.29.417-.516.722-.678a2.177 2.177 0 0 1 1.032-.243c.384 0 .724.081 1.02.243.296.162.528.38.697.655.168.275.252.581.252.917 0 .241-.044.477-.131.707a3.127 3.127 0 0 1-.447.764c-.211.279-.504.62-.879 1.022l-1.471 1.573v.051h3.043V370h-4.129Zm7.75-6.545V370h-.792v-5.714h-.039l-1.598 1.061v-.806l1.637-1.086h.792Zm4.529 6.545v-6.545h3.925v.703h-3.132v2.211h2.838v.703h-2.838V370h-.793Zm6.878.102c-.473 0-.881-.104-1.224-.313a2.108 2.108 0 0 1-.79-.882c-.183-.379-.275-.82-.275-1.323s.092-.946.275-1.33a2.17 2.17 0 0 1 .774-.901c.332-.217.72-.326 1.163-.326.256 0 .508.043.758.128.249.085.476.224.68.415.205.19.368.441.489.755.122.313.182.698.182 1.157v.319h-3.784v-.652h3.017c0-.277-.055-.524-.166-.741a1.248 1.248 0 0 0-.466-.515 1.307 1.307 0 0 0-.71-.188c-.3 0-.56.074-.78.223a1.48 1.48 0 0 0-.502.576 1.69 1.69 0 0 0-.175.76v.435c0 .371.064.685.191.943.13.255.31.45.541.585.23.132.497.198.802.198.198 0 .377-.028.537-.083a1.15 1.15 0 0 0 .418-.256c.118-.115.208-.258.272-.428l.729.204a1.619 1.619 0 0 1-.387.652c-.181.186-.405.33-.671.435a2.495 2.495 0 0 1-.898.153Zm3.282-.102v-6.545h.754v2.416h.064c.056-.085.132-.194.23-.326.101-.134.243-.254.429-.358.187-.107.441-.16.76-.16.414 0 .778.103 1.093.31.316.207.562.5.739.879.176.379.265.827.265 1.342 0 .52-.089.971-.265 1.352a2.098 2.098 0 0 1-.735.882c-.314.207-.675.31-1.084.31-.315 0-.568-.052-.757-.156a1.406 1.406 0 0 1-.438-.361 5.515 5.515 0 0 1-.237-.339h-.089V370h-.729Zm.742-2.455c0 .371.054.698.163.982.108.281.267.501.476.661.209.158.464.237.767.237.315 0 .578-.083.789-.25.213-.168.373-.394.48-.677.108-.286.163-.603.163-.953 0-.345-.054-.656-.16-.933a1.446 1.446 0 0 0-.476-.661c-.211-.164-.477-.246-.796-.246-.307 0-.565.077-.774.233a1.405 1.405 0 0 0-.473.645 2.668 2.668 0 0 0-.159.962Z" style="fill:#242424;fill:color(display-p3 .1412 .1412 .1412);fill-opacity:.6"></path><path stroke="#E9E9E9" stroke-width=".6" d="M444.5 357v-8" style="stroke:#e9e9e9;stroke:color(display-p3 .9125 .9125 .9125);stroke-opacity:1"></path><path fill="#242424" fill-opacity=".6" d="M430.588 370v-.575l2.16-2.365c.254-.277.463-.518.627-.723.164-.206.285-.4.364-.581a1.41 1.41 0 0 0 .121-.576 1.058 1.058 0 0 0-.613-.987 1.447 1.447 0 0 0-.639-.138c-.252 0-.471.053-.659.157a1.077 1.077 0 0 0-.431.431c-.1.186-.15.403-.15.652h-.755c0-.383.089-.72.266-1.009.176-.29.417-.516.722-.678a2.177 2.177 0 0 1 1.032-.243c.384 0 .724.081 1.02.243.296.162.528.38.696.655.169.275.253.581.253.917 0 .241-.044.477-.131.707a3.102 3.102 0 0 1-.448.764c-.211.279-.503.62-.878 1.022l-1.471 1.573v.051h3.043V370h-4.129Zm5.449 0v-.575l2.16-2.365c.254-.277.463-.518.627-.723.164-.206.285-.4.364-.581.081-.184.122-.375.122-.576a1.058 1.058 0 0 0-.614-.987 1.447 1.447 0 0 0-.639-.138c-.252 0-.471.053-.659.157a1.077 1.077 0 0 0-.431.431c-.1.186-.15.403-.15.652h-.755c0-.383.089-.72.266-1.009.177-.29.417-.516.722-.678a2.177 2.177 0 0 1 1.032-.243c.384 0 .724.081 1.02.243.296.162.528.38.697.655.168.275.252.581.252.917 0 .241-.044.477-.131.707a3.127 3.127 0 0 1-.447.764c-.211.279-.504.62-.879 1.022l-1.47 1.573v.051h3.042V370h-4.129Zm8.095 0v-6.545h3.925v.703h-3.132v2.211h2.838v.703h-2.838V370h-.793Zm6.878.102c-.473 0-.881-.104-1.224-.313a2.1 2.1 0 0 1-.789-.882c-.183-.379-.275-.82-.275-1.323s.092-.946.275-1.33c.185-.385.443-.686.773-.901.333-.217.72-.326 1.164-.326.255 0 .508.043.757.128s.476.224.681.415a2 2 0 0 1 .489.755c.121.313.182.698.182 1.157v.319h-3.784v-.652h3.017c0-.277-.055-.524-.166-.741a1.25 1.25 0 0 0-.467-.515 1.303 1.303 0 0 0-.709-.188c-.301 0-.561.074-.78.223a1.464 1.464 0 0 0-.502.576 1.69 1.69 0 0 0-.176.76v.435c0 .371.064.685.192.943.13.255.31.45.54.585.23.132.498.198.802.198.198 0 .377-.028.537-.083.162-.058.302-.143.419-.256.117-.115.208-.258.272-.428l.728.204a1.605 1.605 0 0 1-.386.652 1.89 1.89 0 0 1-.672.435 2.491 2.491 0 0 1-.898.153Zm3.283-.102v-6.545h.754v2.416h.064c.055-.085.132-.194.23-.326.1-.134.243-.254.428-.358.188-.107.441-.16.761-.16.413 0 .778.103 1.093.31.315.207.561.5.738.879.177.379.265.827.265 1.342 0 .52-.088.971-.265 1.352a2.098 2.098 0 0 1-.735.882c-.313.207-.674.31-1.083.31-.316 0-.568-.052-.758-.156a1.43 1.43 0 0 1-.438-.361 5.03 5.03 0 0 1-.236-.339h-.09V370h-.728Zm.741-2.455c0 .371.054.698.163.982.109.281.267.501.476.661.209.158.465.237.767.237.316 0 .579-.083.79-.25.213-.168.373-.394.479-.677.109-.286.163-.603.163-.953 0-.345-.053-.656-.16-.933a1.439 1.439 0 0 0-.476-.661c-.211-.164-.476-.246-.796-.246-.306 0-.564.077-.773.233a1.391 1.391 0 0 0-.473.645c-.107.275-.16.596-.16.962Z" style="fill:#242424;fill:color(display-p3 .1412 .1412 .1412);fill-opacity:.6"></path><path stroke="#E9E9E9" stroke-width=".6" d="M512.167 357v-8" style="stroke:#e9e9e9;stroke:color(display-p3 .9125 .9125 .9125);stroke-opacity:1"></path><path fill="#242424" fill-opacity=".6" d="M498.114 370v-.575l2.16-2.365c.254-.277.463-.518.627-.723.164-.206.285-.4.364-.581.081-.184.122-.375.122-.576a1.058 1.058 0 0 0-.614-.987 1.447 1.447 0 0 0-.639-.138c-.252 0-.471.053-.659.157a1.077 1.077 0 0 0-.431.431c-.1.186-.15.403-.15.652h-.755c0-.383.089-.72.266-1.009.176-.29.417-.516.722-.678a2.177 2.177 0 0 1 1.032-.243c.384 0 .724.081 1.02.243.296.162.528.38.696.655.169.275.253.581.253.917 0 .241-.044.477-.131.707a3.102 3.102 0 0 1-.448.764c-.21.279-.503.62-.878 1.022l-1.471 1.573v.051h3.043V370h-4.129Zm7.661.089c-.422 0-.798-.072-1.129-.217a1.933 1.933 0 0 1-.783-.604 1.628 1.628 0 0 1-.313-.904h.806a.947.947 0 0 0 .217.546c.128.151.295.269.502.352.206.083.435.124.687.124.281 0 .53-.049.748-.147.217-.098.388-.234.511-.409a1.02 1.02 0 0 0 .185-.607c0-.241-.059-.453-.179-.636a1.19 1.19 0 0 0-.524-.435c-.23-.104-.511-.156-.843-.156h-.525v-.703h.525c.26 0 .488-.047.684-.141a1.064 1.064 0 0 0 .632-.997c0-.222-.049-.415-.147-.579a1 1 0 0 0-.415-.383 1.342 1.342 0 0 0-.627-.138c-.225 0-.438.042-.639.125a1.19 1.19 0 0 0-.486.355.93.93 0 0 0-.204.556h-.767c.013-.343.116-.644.31-.901a1.95 1.95 0 0 1 .761-.608 2.452 2.452 0 0 1 1.038-.217c.405 0 .752.082 1.042.246.29.162.513.376.668.643.156.266.233.554.233.862 0 .369-.097.683-.29.943-.192.26-.453.44-.783.54v.052c.413.068.736.244.968.527.232.281.348.63.348 1.045 0 .356-.097.675-.291.959a1.969 1.969 0 0 1-.786.665c-.332.162-.71.242-1.134.242Zm6.165-.089v-6.545h3.924v.703h-3.132v2.211h2.838v.703h-2.838V370h-.792Zm6.878.102c-.473 0-.881-.104-1.224-.313a2.101 2.101 0 0 1-.79-.882c-.183-.379-.275-.82-.275-1.323s.092-.946.275-1.33c.185-.385.443-.686.774-.901.332-.217.72-.326 1.163-.326.256 0 .508.043.757.128.25.085.477.224.681.415.205.19.368.441.489.755.122.313.182.698.182 1.157v.319h-3.784v-.652h3.017c0-.277-.055-.524-.166-.741a1.25 1.25 0 0 0-.467-.515 1.3 1.3 0 0 0-.709-.188c-.301 0-.56.074-.78.223a1.472 1.472 0 0 0-.502.576 1.69 1.69 0 0 0-.175.76v.435c0 .371.063.685.191.943.13.255.31.45.54.585.231.132.498.198.803.198.198 0 .377-.028.537-.083.161-.058.301-.143.418-.256.117-.115.208-.258.272-.428l.729.204a1.619 1.619 0 0 1-.387.652c-.181.186-.405.33-.671.435a2.499 2.499 0 0 1-.898.153ZM522.1 370v-6.545h.754v2.416h.064c.056-.085.132-.194.23-.326.1-.134.243-.254.428-.358.188-.107.442-.16.761-.16.413 0 .778.103 1.093.31.316.207.562.5.738.879.177.379.266.827.266 1.342 0 .52-.089.971-.266 1.352a2.084 2.084 0 0 1-.735.882c-.313.207-.674.31-1.083.31-.315 0-.568-.052-.758-.156a1.413 1.413 0 0 1-.437-.361 5.104 5.104 0 0 1-.237-.339h-.089V370h-.729Zm.741-2.455c0 .371.055.698.163.982.109.281.268.501.477.661.208.158.464.237.767.237.315 0 .578-.083.789-.25.213-.168.373-.394.479-.677.109-.286.163-.603.163-.953 0-.345-.053-.656-.159-.933a1.44 1.44 0 0 0-.477-.661c-.21-.164-.476-.246-.795-.246-.307 0-.565.077-.774.233a1.398 1.398 0 0 0-.473.645c-.106.275-.16.596-.16.962Z" style="fill:#242424;fill:color(display-p3 .1412 .1412 .1412);fill-opacity:.6"></path><path fill="#FFCCE4" d="M149.832 325a2 2 0 0 1 2-2h44a2 2 0 0 1 2 2v24.203h-48V325Z" style="fill:#ffcce4;fill:color(display-p3 .999 .801 .896);fill-opacity:1"></path><path fill="#FE4CA1" d="M217.5 260.811a2 2 0 0 1 2-2h44a2 2 0 0 1 2 2v88.392h-48v-88.392Z" style="fill:#fe4ca1;fill:color(display-p3 .9966 .2968 .6327);fill-opacity:1"></path><path fill="#FFCCE4" d="M285.164 218.299a2 2 0 0 1 2-2h44a2 2 0 0 1 2 2v130.904h-48V218.299ZM352.832 295a2 2 0 0 1 2-2h44a2 2 0 0 1 2 2v54.203h-48V295ZM420.5 336.457a2 2 0 0 1 2-2h44a2 2 0 0 1 2 2v12.746h-48v-12.746ZM488.164 344.108a2 2 0 0 1 2-2h44a2 2 0 0 1 2 2v5.095h-48v-5.095Z" style="fill:#ffcce4;fill:color(display-p3 .999 .801 .896);fill-opacity:1"></path><path fill="#242424" fill-rule="evenodd" d="M234.93 226.392a6 6 0 0 0-6 6v9.932a6 6 0 0 0 6 6h.207a1 1 0 0 1 .866.5l3.219 5.576a1.2 1.2 0 0 0 2.079 0l3.219-5.576c.179-.309.509-.5.866-.5h.208a6 6 0 0 0 6-6v-9.932a6 6 0 0 0-6-6H234.93Z" clip-rule="evenodd" style="fill:#242424;fill:color(display-p3 .1412 .1412 .1412);fill-opacity:1"></path><path fill="#fff" d="M237.337 235.899h-1.35v-.522c.516 0 .897-.072 1.143-.216.252-.144.42-.396.504-.756h.477v6.453h-.774v-4.959Zm5.969 2.871c0-.462-.135-.837-.405-1.125-.264-.288-.627-.432-1.089-.432-.294 0-.561.063-.801.189a1.505 1.505 0 0 0-.567.531h-.693l.36-3.501h3.618v.657h-3.06l-.216 2.124a1.51 1.51 0 0 1 .612-.45c.264-.12.534-.18.81-.18.642 0 1.164.207 1.566.621.408.408.612.93.612 1.566 0 .642-.207 1.17-.621 1.584-.408.408-.948.612-1.62.612-.654 0-1.194-.183-1.62-.549-.42-.366-.654-.855-.702-1.467h.765c.03.42.186.756.468 1.008.288.252.654.378 1.098.378.456 0 .816-.144 1.08-.432.27-.294.405-.672.405-1.134Z" style="fill:#fff;fill-opacity:1"></path><g clip-path="url(#h)"><rect width="944" height="265" x="104" y="406" fill="#fff" rx="8" style="fill:#fff;fill-opacity:1"></rect><path fill="#242424" d="M128.959 443v-8.727h3.111c.676 0 1.237.116 1.683.349.449.233.784.556 1.006.967.221.41.332.883.332 1.42 0 .534-.112 1.004-.337 1.41a2.27 2.27 0 0 1-1.005.942c-.446.224-1.008.336-1.684.336h-2.356v-1.133h2.237c.426 0 .773-.061 1.04-.183.27-.122.467-.3.592-.533.125-.233.188-.513.188-.839 0-.33-.064-.616-.192-.857a1.244 1.244 0 0 0-.592-.554c-.268-.131-.618-.196-1.053-.196h-1.653V443h-1.317Zm4.308-3.938 2.156 3.938h-1.5l-2.113-3.938h1.457Zm6.063 4.07c-.645 0-1.2-.138-1.666-.413a2.808 2.808 0 0 1-1.074-1.172c-.25-.506-.375-1.098-.375-1.777 0-.671.125-1.261.375-1.773.253-.511.605-.91 1.057-1.197.454-.287.985-.431 1.593-.431.37 0 .728.061 1.074.184.347.122.658.313.934.575.275.261.492.601.652 1.018.159.415.238.919.238 1.513v.452h-5.203v-.955h3.955c0-.335-.069-.632-.205-.89a1.537 1.537 0 0 0-.575-.618 1.607 1.607 0 0 0-.861-.226c-.358 0-.671.088-.938.264a1.774 1.774 0 0 0-.613.682 1.968 1.968 0 0 0-.213.908v.745c0 .438.076.81.23 1.117.156.307.373.541.652.703.278.159.604.239.976.239.241 0 .461-.035.66-.103a1.356 1.356 0 0 0 .848-.831l1.206.218c-.096.355-.27.666-.52.933-.247.264-.558.47-.933.618a3.49 3.49 0 0 1-1.274.217Zm9.127-5.079-1.155.204a1.367 1.367 0 0 0-.23-.422 1.15 1.15 0 0 0-.418-.328 1.513 1.513 0 0 0-.66-.128c-.361 0-.662.081-.904.243-.241.159-.362.365-.362.618a.65.65 0 0 0 .243.528c.162.134.423.243.784.329l1.04.238c.602.139 1.051.354 1.346.644.296.289.444.666.444 1.129 0 .392-.114.741-.341 1.048-.225.304-.539.543-.942.716-.401.173-.865.26-1.394.26-.733 0-1.331-.156-1.794-.469-.463-.315-.747-.762-.852-1.342l1.232-.187c.076.321.234.563.473.728.238.162.549.243.933.243.417 0 .751-.087 1.001-.26.25-.176.375-.39.375-.643a.666.666 0 0 0-.23-.516c-.15-.139-.382-.244-.694-.315l-1.108-.243c-.611-.139-1.063-.361-1.356-.665-.289-.304-.434-.689-.434-1.155 0-.386.108-.724.324-1.014.216-.29.514-.516.895-.678.38-.164.816-.247 1.308-.247.707 0 1.264.154 1.67.461.407.304.675.711.806 1.223Zm4.286 5.079c-.634 0-1.179-.143-1.637-.43a2.85 2.85 0 0 1-1.048-1.198c-.244-.508-.367-1.091-.367-1.747 0-.665.125-1.251.375-1.76.25-.511.603-.91 1.057-1.197.455-.287.99-.431 1.607-.431.497 0 .94.093 1.329.277.39.182.703.438.942.767.242.33.385.715.43 1.155h-1.24a1.481 1.481 0 0 0-.468-.792c-.242-.222-.566-.333-.972-.333-.355 0-.666.094-.933.281-.264.185-.47.449-.618.793-.148.341-.222.744-.222 1.21 0 .478.073.889.218 1.236.145.347.349.615.613.805.267.191.581.286.942.286.242 0 .46-.044.656-.132.199-.091.365-.22.499-.388.136-.168.231-.369.285-.605h1.24a2.403 2.403 0 0 1-.413 1.133c-.23.333-.538.594-.925.785-.383.19-.833.285-1.35.285Zm5.325-4.018V443h-1.274v-8.727h1.257v3.247h.081c.154-.352.388-.632.703-.84.316-.207.728-.311 1.236-.311.449 0 .841.093 1.176.277.338.185.6.461.784.827.188.364.281.818.281 1.364V443h-1.274v-4.01c0-.48-.123-.852-.37-1.116-.248-.267-.591-.401-1.032-.401-.301 0-.571.064-.809.192a1.388 1.388 0 0 0-.559.562c-.133.245-.2.54-.2.887Zm8.766 4.018c-.645 0-1.2-.138-1.666-.413a2.808 2.808 0 0 1-1.074-1.172c-.25-.506-.375-1.098-.375-1.777 0-.671.125-1.261.375-1.773.253-.511.605-.91 1.057-1.197.454-.287.985-.431 1.593-.431.37 0 .728.061 1.074.184.347.122.658.313.933.575.276.261.493.601.652 1.018.16.415.239.919.239 1.513v.452h-5.203v-.955h3.954c0-.335-.068-.632-.204-.89a1.537 1.537 0 0 0-.575-.618 1.607 1.607 0 0 0-.861-.226c-.358 0-.671.088-.938.264a1.774 1.774 0 0 0-.613.682 1.968 1.968 0 0 0-.213.908v.745c0 .438.076.81.23 1.117.156.307.373.541.652.703.278.159.603.239.976.239.241 0 .461-.035.66-.103a1.368 1.368 0 0 0 .848-.831l1.206.218c-.097.355-.27.666-.52.933-.247.264-.558.47-.933.618a3.49 3.49 0 0 1-1.274.217Zm6.672-.004c-.528 0-1-.135-1.415-.405-.412-.273-.736-.661-.971-1.163-.233-.506-.35-1.113-.35-1.82 0-.707.118-1.312.354-1.815.239-.503.565-.888.98-1.155a2.55 2.55 0 0 1 1.411-.401c.406 0 .733.069.98.205.25.133.443.29.579.469.139.179.247.336.324.473h.077v-3.243h1.274V443h-1.244v-1.018h-.107a3.393 3.393 0 0 1-.332.477 1.853 1.853 0 0 1-.588.469c-.25.133-.574.2-.972.2Zm.281-1.087c.367 0 .676-.096.929-.29.256-.196.449-.467.58-.813.133-.347.2-.751.2-1.211 0-.454-.065-.852-.196-1.193a1.757 1.757 0 0 0-.575-.797c-.253-.19-.566-.285-.938-.285-.383 0-.703.099-.959.298a1.83 1.83 0 0 0-.579.814 3.314 3.314 0 0 0-.192 1.163c0 .438.066.831.196 1.181.131.349.324.626.58.831.258.201.576.302.954.302Zm8.927-1.755v-3.831h1.278V443h-1.253v-1.134h-.068c-.15.35-.392.641-.724.874-.33.23-.74.345-1.232.345a2.21 2.21 0 0 1-1.116-.277 1.944 1.944 0 0 1-.759-.831c-.182-.366-.273-.819-.273-1.359v-4.163h1.275v4.009c0 .447.123.802.37 1.066.248.264.569.396.963.396.239 0 .476-.06.712-.179.239-.119.436-.3.592-.541.159-.242.238-.548.235-.92Zm4.264-6.013V443h-1.274v-8.727h1.274Zm4.535 8.859c-.644 0-1.2-.138-1.666-.413a2.808 2.808 0 0 1-1.074-1.172c-.25-.506-.375-1.098-.375-1.777 0-.671.125-1.261.375-1.773a2.92 2.92 0 0 1 1.057-1.197c.455-.287.986-.431 1.594-.431.369 0 .727.061 1.074.184.346.122.658.313.933.575.276.261.493.601.652 1.018.159.415.239.919.239 1.513v.452h-5.203v-.955h3.954c0-.335-.068-.632-.204-.89a1.546 1.546 0 0 0-.576-.618 1.601 1.601 0 0 0-.86-.226c-.358 0-.671.088-.938.264a1.777 1.777 0 0 0-.614.682 1.968 1.968 0 0 0-.213.908v.745c0 .438.077.81.23 1.117.157.307.374.541.652.703.279.159.604.239.976.239.242 0 .462-.035.661-.103a1.37 1.37 0 0 0 .848-.831l1.206.218c-.097.355-.27.666-.52.933-.247.264-.558.47-.933.618a3.496 3.496 0 0 1-1.275.217Zm8.672-8.859V443h-1.274v-8.727h1.274Zm4.472 8.859c-.614 0-1.15-.141-1.607-.422a2.843 2.843 0 0 1-1.065-1.18c-.253-.506-.38-1.097-.38-1.773 0-.679.127-1.273.38-1.781a2.839 2.839 0 0 1 1.065-1.185c.457-.281.993-.422 1.607-.422.613 0 1.149.141 1.606.422.458.281.813.676 1.065 1.185.253.508.38 1.102.38 1.781 0 .676-.127 1.267-.38 1.773a2.83 2.83 0 0 1-1.065 1.18c-.457.281-.993.422-1.606.422Zm.004-1.07c.398 0 .727-.105.989-.315.261-.21.454-.49.579-.839a3.34 3.34 0 0 0 .192-1.155c0-.418-.064-.801-.192-1.151a1.877 1.877 0 0 0-.579-.848c-.262-.213-.591-.319-.989-.319-.401 0-.733.106-.997.319a1.902 1.902 0 0 0-.584.848c-.125.35-.188.733-.188 1.151 0 .42.063.805.188 1.155.128.349.322.629.584.839.264.21.596.315.997.315Zm7.213 3.529c-.52 0-.967-.068-1.342-.205a2.59 2.59 0 0 1-.912-.541 2.256 2.256 0 0 1-.528-.737l1.095-.452c.076.125.179.257.307.397.13.142.306.262.528.362.224.099.513.149.865.149.483 0 .882-.118 1.198-.354.315-.233.473-.605.473-1.116v-1.287h-.081a2.911 2.911 0 0 1-.333.464 1.789 1.789 0 0 1-.588.443c-.25.125-.575.188-.976.188-.517 0-.983-.121-1.397-.362-.412-.245-.739-.604-.981-1.078-.238-.478-.358-1.064-.358-1.76s.118-1.293.354-1.79c.239-.497.565-.878.98-1.142a2.55 2.55 0 0 1 1.411-.401c.406 0 .734.069.984.205.25.133.445.29.584.469.142.179.251.336.328.473h.094v-1.061h1.248v6.69c0 .562-.13 1.024-.392 1.385a2.3 2.3 0 0 1-1.061.801c-.443.173-.943.26-1.5.26Zm-.012-3.746c.366 0 .676-.085.928-.256a1.59 1.59 0 0 0 .58-.741c.134-.324.2-.712.2-1.163 0-.441-.065-.828-.196-1.164a1.726 1.726 0 0 0-.575-.784c-.253-.19-.565-.285-.937-.285-.384 0-.704.099-.959.298a1.8 1.8 0 0 0-.58.801 3.181 3.181 0 0 0-.192 1.134c0 .429.066.805.196 1.129.131.324.324.577.58.758.258.182.577.273.955.273Zm9.579-3.792-1.155.204a1.367 1.367 0 0 0-.23-.422 1.133 1.133 0 0 0-.418-.328 1.513 1.513 0 0 0-.66-.128c-.361 0-.662.081-.903.243-.242.159-.363.365-.363.618a.65.65 0 0 0 .243.528c.162.134.424.243.784.329l1.04.238c.602.139 1.051.354 1.347.644.295.289.443.666.443 1.129 0 .392-.114.741-.341 1.048-.224.304-.538.543-.942.716-.4.173-.865.26-1.393.26-.733 0-1.331-.156-1.794-.469-.463-.315-.747-.762-.853-1.342l1.232-.187c.077.321.234.563.473.728.239.162.55.243.933.243.418 0 .752-.087 1.002-.26.25-.176.375-.39.375-.643a.67.67 0 0 0-.23-.516c-.151-.139-.383-.244-.695-.315l-1.108-.243c-.611-.139-1.063-.361-1.355-.665-.29-.304-.435-.689-.435-1.155 0-.386.108-.724.324-1.014.216-.29.514-.516.895-.678a3.28 3.28 0 0 1 1.308-.247c.708 0 1.264.154 1.671.461.406.304.674.711.805 1.223Z" style="fill:#242424;fill:color(display-p3 .1412 .1412 .1412);fill-opacity:1"></path></g><rect width="943.4" height="264.4" x="104.3" y="406.3" stroke="#E7E5DF" stroke-opacity=".6" stroke-width=".6" rx="7.7" style="stroke:#e7e5df;stroke:color(display-p3 .9059 .898 .8745);stroke-opacity:.6"></rect><rect width="54.989" height="23.991" x="104" y="105" fill="#fff" rx="11.996" style="fill:#fff;fill-opacity:1"></rect><rect width="54.389" height="23.391" x="104.3" y="105.3" stroke="#E7E5DF" stroke-opacity=".6" stroke-width=".6" rx="11.696" style="stroke:#e7e5df;stroke:color(display-p3 .9059 .898 .8745);stroke-opacity:.6"></rect><path fill="#575757" d="M117.153 120.496h-2.354v-7.273h2.429c.713 0 1.325.145 1.836.437.511.288.903.704 1.175 1.246.275.54.412 1.187.412 1.943 0 .757-.138 1.408-.415 1.953a2.927 2.927 0 0 1-1.193 1.257c-.521.291-1.151.437-1.89.437Zm-1.257-.959h1.197c.554 0 1.014-.104 1.381-.313.367-.21.642-.515.824-.912.183-.4.274-.888.274-1.463 0-.571-.091-1.055-.274-1.453a1.927 1.927 0 0 0-.806-.905c-.357-.206-.801-.309-1.331-.309h-1.265v5.355Zm7.622 1.079c-.346 0-.658-.064-.938-.191a1.593 1.593 0 0 1-.664-.565c-.161-.246-.241-.548-.241-.906 0-.307.059-.561.177-.76.119-.198.279-.356.48-.472.201-.116.426-.203.675-.263a6.74 6.74 0 0 1 .76-.135l.795-.092c.204-.026.352-.067.444-.124.092-.057.138-.149.138-.277v-.025c0-.31-.087-.55-.262-.721-.173-.17-.431-.256-.775-.256-.357 0-.639.08-.845.238a1.285 1.285 0 0 0-.422.522l-.998-.227c.118-.331.291-.599.518-.802.23-.206.494-.356.792-.448a3.08 3.08 0 0 1 .941-.142c.218 0 .449.026.693.078.246.05.476.142.689.277.215.135.391.328.529.579.137.249.206.572.206.969v3.623h-1.037v-.746h-.043a1.516 1.516 0 0 1-.309.405 1.648 1.648 0 0 1-.529.33 2.041 2.041 0 0 1-.774.131Zm.231-.852c.293 0 .544-.058.753-.174.21-.116.37-.267.479-.454.111-.19.167-.392.167-.608v-.703a.548.548 0 0 1-.22.107c-.107.03-.229.058-.366.081a28.66 28.66 0 0 1-.401.061l-.327.042c-.206.026-.394.07-.565.132a.956.956 0 0 0-.404.266.664.664 0 0 0-.15.455c0 .262.097.461.292.596.194.133.441.199.742.199Zm6.421-4.723v.852h-2.979v-.852h2.979Zm-2.18-1.307h1.061v5.16c0 .206.031.361.093.465a.48.48 0 0 0 .238.21.964.964 0 0 0 .323.053c.085 0 .16-.006.224-.018l.149-.028.192.877a2.13 2.13 0 0 1-.689.114c-.28.004-.54-.045-.782-.15a1.35 1.35 0 0 1-.586-.482c-.149-.218-.223-.492-.223-.821v-5.38Zm5.647 6.872c-.538 0-1-.115-1.389-.345a2.334 2.334 0 0 1-.894-.976c-.209-.422-.313-.915-.313-1.481 0-.559.104-1.051.313-1.477.21-.427.504-.759.88-.998.379-.239.822-.359 1.328-.359.308 0 .606.051.895.153.289.102.548.261.778.479.23.218.411.501.543.849.133.346.199.766.199 1.261v.376h-4.336v-.796h3.296c0-.279-.057-.526-.171-.742a1.286 1.286 0 0 0-.479-.515 1.346 1.346 0 0 0-.718-.188c-.298 0-.558.074-.781.22-.22.145-.39.334-.511.569a1.632 1.632 0 0 0-.178.756v.621c0 .365.064.675.192.931.13.255.311.451.543.586.232.132.503.199.814.199.201 0 .384-.029.55-.086.166-.059.309-.146.43-.262.12-.116.213-.26.277-.43l1.005.181a1.823 1.823 0 0 1-.434.778c-.206.22-.465.391-.777.515-.31.12-.664.181-1.062.181ZM144.996 120.144l-3.031-4.5h6.062l-3.031 4.5Z" style="fill:#575757;fill:color(display-p3 .34 .34 .34);fill-opacity:1"></path><rect width="80.989" height="23.991" x="164.989" y="105" fill="#fff" rx="11.996" style="fill:#fff;fill-opacity:1"></rect><rect width="80.389" height="23.391" x="165.289" y="105.3" stroke="#E7E5DF" stroke-opacity=".6" stroke-width=".6" rx="11.696" style="stroke:#e7e5df;stroke:color(display-p3 .9059 .898 .8745);stroke-opacity:.6"></rect><path fill="#575757" d="M179.754 115.133a1.037 1.037 0 0 0-.469-.781c-.274-.187-.62-.28-1.037-.28-.298 0-.556.047-.774.142-.217.092-.387.22-.507.383a.903.903 0 0 0-.178.551c0 .172.04.322.121.447.083.126.19.231.323.316.135.083.279.153.433.21.154.054.302.099.444.135l.71.184c.232.057.47.134.714.231s.47.225.678.384a1.71 1.71 0 0 1 .7 1.431c0 .412-.107.777-.32 1.097-.21.32-.517.572-.92.756-.4.185-.884.277-1.452.277-.544 0-1.016-.086-1.413-.259a2.178 2.178 0 0 1-.934-.735 2.133 2.133 0 0 1-.373-1.136h1.101c.021.262.106.481.255.657.152.172.345.301.579.387.237.083.496.124.778.124.31 0 .586-.049.827-.146.244-.099.436-.236.576-.412a.977.977 0 0 0 .209-.621.763.763 0 0 0-.184-.529 1.376 1.376 0 0 0-.494-.341 4.845 4.845 0 0 0-.7-.238l-.859-.234c-.582-.159-1.044-.392-1.385-.7-.339-.308-.508-.715-.508-1.221 0-.42.114-.785.341-1.098.227-.312.535-.555.923-.728a3.169 3.169 0 0 1 1.314-.263c.493 0 .927.087 1.304.26.378.173.677.41.894.713.218.301.332.647.341 1.037h-1.058Zm4.681 5.473c-.527 0-.982-.12-1.363-.359a2.373 2.373 0 0 1-.874-.998c-.203-.424-.305-.909-.305-1.456 0-.554.104-1.043.312-1.466.209-.427.502-.759.881-.998s.825-.359 1.339-.359c.414 0 .783.077 1.108.231a1.934 1.934 0 0 1 1.143 1.601h-1.033a1.24 1.24 0 0 0-.391-.66c-.201-.185-.471-.277-.809-.277a1.32 1.32 0 0 0-.778.234c-.22.154-.392.374-.515.661-.123.284-.185.62-.185 1.008 0 .398.061.741.181 1.03.121.289.292.513.512.671.222.159.484.238.785.238.201 0 .383-.036.546-.11.166-.076.305-.183.416-.323.114-.14.193-.308.238-.504h1.033a2.007 2.007 0 0 1-.344.944 1.99 1.99 0 0 1-.771.654c-.319.158-.695.238-1.126.238Zm4.438-3.349v3.239h-1.061v-7.273h1.047v2.706h.068c.128-.294.323-.527.586-.7.262-.173.606-.259 1.03-.259a2 2 0 0 1 .98.231c.281.154.499.383.653.689.156.303.234.682.234 1.136v3.47h-1.061v-3.342c0-.4-.103-.71-.309-.93-.206-.223-.493-.334-.86-.334-.251 0-.476.053-.674.16a1.148 1.148 0 0 0-.466.468c-.111.204-.167.45-.167.739Zm7.305 3.349c-.537 0-1-.115-1.388-.345a2.33 2.33 0 0 1-.895-.976c-.209-.422-.313-.915-.313-1.481 0-.559.104-1.051.313-1.477.21-.427.504-.759.88-.998.379-.239.822-.359 1.329-.359.307 0 .606.051.894.153.289.102.549.261.778.479.23.218.411.501.543.849.133.346.199.766.199 1.261v.376h-4.336v-.796h3.296c0-.279-.057-.526-.171-.742a1.286 1.286 0 0 0-.479-.515 1.345 1.345 0 0 0-.717-.188c-.299 0-.559.074-.782.22-.22.145-.39.334-.511.569a1.643 1.643 0 0 0-.177.756v.621c0 .365.063.675.191.931.13.255.312.451.544.586.232.132.503.199.813.199.201 0 .385-.029.55-.086.166-.059.309-.146.43-.262.121-.116.213-.26.277-.43l1.005.181a1.832 1.832 0 0 1-.433.778c-.206.22-.466.391-.778.515-.31.12-.664.181-1.062.181Zm5.56-.004c-.44 0-.833-.112-1.179-.337a2.297 2.297 0 0 1-.809-.97c-.194-.421-.291-.927-.291-1.516 0-.59.098-1.094.294-1.513.199-.419.471-.74.817-.962a2.12 2.12 0 0 1 1.175-.334c.339 0 .611.057.817.17.209.112.37.242.483.391.116.149.206.281.27.394h.064v-2.702h1.062v7.273h-1.037v-.849h-.089a2.845 2.845 0 0 1-.277.398 1.535 1.535 0 0 1-.49.39c-.208.112-.478.167-.81.167Zm.235-.905c.305 0 .563-.081.774-.242.213-.163.374-.389.483-.678.111-.289.167-.625.167-1.009 0-.378-.055-.71-.164-.994a1.46 1.46 0 0 0-.479-.664c-.211-.159-.471-.238-.781-.238-.32 0-.586.083-.799.249a1.513 1.513 0 0 0-.483.678 2.75 2.75 0 0 0-.16.969c0 .365.054.693.163.984.109.291.27.522.483.692.216.169.481.253.796.253Zm7.438-1.463v-3.193h1.066v5.455h-1.044v-.945h-.057a1.707 1.707 0 0 1-.604.728c-.274.192-.616.288-1.026.288-.35 0-.661-.077-.93-.231a1.618 1.618 0 0 1-.633-.693c-.151-.305-.227-.683-.227-1.132v-3.47h1.062v3.342c0 .371.103.667.309.887.206.221.473.331.803.331a1.312 1.312 0 0 0 1.086-.6c.133-.202.198-.457.195-.767Zm3.554-5.011v7.273h-1.062v-7.273h1.062Zm3.78 7.383c-.538 0-1.001-.115-1.389-.345a2.337 2.337 0 0 1-.895-.976c-.208-.422-.312-.915-.312-1.481 0-.559.104-1.051.312-1.477a2.42 2.42 0 0 1 .881-.998c.379-.239.821-.359 1.328-.359.308 0 .606.051.895.153.289.102.548.261.778.479.229.218.41.501.543.849.132.346.199.766.199 1.261v.376h-4.336v-.796h3.295c0-.279-.057-.526-.17-.742a1.295 1.295 0 0 0-1.197-.703 1.39 1.39 0 0 0-.781.22c-.22.145-.391.334-.512.569a1.643 1.643 0 0 0-.177.756v.621c0 .365.064.675.192.931.13.255.311.451.543.586.232.132.503.199.813.199.201 0 .385-.029.551-.086a1.144 1.144 0 0 0 .706-.692l1.005.181c-.08.296-.225.555-.433.778a2.11 2.11 0 0 1-.778.515c-.31.12-.664.181-1.061.181Zm3.518-.11v-5.455h1.026v.867h.057c.099-.294.275-.525.526-.693.253-.17.539-.256.859-.256.066 0 .144.003.234.007.093.005.165.011.217.018V116a1.836 1.836 0 0 0-.227-.039 2.118 2.118 0 0 0-.327-.025c-.251 0-.475.053-.671.16a1.191 1.191 0 0 0-.632 1.069v3.331h-1.062ZM231.985 120.144l-3.031-4.5h6.062l-3.031 4.5Z" style="fill:#575757;fill:color(display-p3 .34 .34 .34);fill-opacity:1"></path><rect width="49.989" height="23.991" x="251.977" y="105" fill="#fff" rx="11.996" style="fill:#fff;fill-opacity:1"></rect><rect width="49.389" height="23.391" x="252.277" y="105.3" stroke="#E7E5DF" stroke-opacity=".6" stroke-width=".6" rx="11.696" style="stroke:#e7e5df;stroke:color(display-p3 .9059 .898 .8745);stroke-opacity:.6"></rect><path fill="#575757" d="M265.603 113.223h1.094v5.156c0 .467-.093.865-.277 1.197-.183.331-.44.585-.771.76-.331.173-.72.259-1.165.259-.409 0-.777-.075-1.104-.224a1.816 1.816 0 0 1-.771-.65c-.187-.286-.28-.634-.28-1.044h1.09c0 .202.046.376.138.522a.977.977 0 0 0 .388.345c.165.08.355.121.568.121.232 0 .428-.049.589-.146a.935.935 0 0 0 .373-.437c.085-.192.128-.426.128-.703v-5.156Zm4.903 7.383c-.511 0-.958-.117-1.339-.352a2.36 2.36 0 0 1-.887-.984c-.211-.421-.316-.913-.316-1.477 0-.566.105-1.06.316-1.484.21-.424.506-.753.887-.987.381-.235.828-.352 1.339-.352s.958.117 1.339.352c.381.234.677.563.888.987.21.424.316.918.316 1.484 0 .564-.106 1.056-.316 1.477a2.37 2.37 0 0 1-.888.984c-.381.235-.828.352-1.339.352Zm.004-.892c.331 0 .606-.087.824-.262a1.55 1.55 0 0 0 .482-.7 2.77 2.77 0 0 0 .16-.962c0-.348-.053-.668-.16-.959a1.566 1.566 0 0 0-.482-.707c-.218-.177-.493-.266-.824-.266-.334 0-.611.089-.831.266a1.59 1.59 0 0 0-.487.707 2.833 2.833 0 0 0-.156.959c0 .35.052.671.156.962.107.291.269.524.487.7.22.175.497.262.831.262Zm3.809.782v-7.273h1.062v2.702h.064c.061-.113.15-.245.266-.394.116-.149.277-.279.483-.391.206-.113.478-.17.817-.17.44 0 .833.111 1.179.334.346.222.617.543.813.962.199.419.298.923.298 1.513 0 .589-.098 1.095-.294 1.516a2.306 2.306 0 0 1-.81.97 2.094 2.094 0 0 1-1.175.337c-.332 0-.603-.055-.814-.167a1.547 1.547 0 0 1-.49-.39 3.048 3.048 0 0 1-.273-.398h-.089v.849h-1.037Zm1.041-2.728c0 .384.055.72.167 1.009.111.289.272.515.482.678.211.161.469.242.775.242.317 0 .582-.084.795-.253.213-.17.374-.401.483-.692.111-.291.167-.619.167-.984 0-.36-.055-.683-.163-.969a1.483 1.483 0 0 0-.483-.678c-.213-.166-.48-.249-.799-.249a1.27 1.27 0 0 0-.782.238c-.21.159-.37.38-.479.664a2.77 2.77 0 0 0-.163.994ZM287.973 120.144l-3.031-4.5h6.062l-3.031 4.5Z" style="fill:#575757;fill:color(display-p3 .34 .34 .34);fill-opacity:1"></path><rect width="59.989" height="23.991" x="307.966" y="105" fill="#fff" rx="11.996" style="fill:#fff;fill-opacity:1"></rect><rect width="59.389" height="23.391" x="308.266" y="105.3" stroke="#E7E5DF" stroke-opacity=".6" stroke-width=".6" rx="11.696" style="stroke:#e7e5df;stroke:color(display-p3 .9059 .898 .8745);stroke-opacity:.6"></rect><path fill="#575757" d="M322.731 115.133a1.04 1.04 0 0 0-.468-.781c-.275-.187-.621-.28-1.037-.28-.299 0-.557.047-.775.142-.217.092-.387.22-.507.383a.903.903 0 0 0-.178.551c0 .172.04.322.121.447.083.126.19.231.323.316.135.083.279.153.433.21.154.054.302.099.444.135l.71.184c.232.057.47.134.714.231s.47.225.678.384a1.71 1.71 0 0 1 .7 1.431c0 .412-.107.777-.32 1.097-.21.32-.517.572-.919.756-.4.185-.885.277-1.453.277-.544 0-1.015-.086-1.413-.259a2.178 2.178 0 0 1-.934-.735 2.133 2.133 0 0 1-.373-1.136h1.101c.021.262.106.481.256.657.151.172.344.301.578.387.237.083.496.124.778.124.31 0 .586-.049.828-.146.243-.099.435-.236.575-.412a.97.97 0 0 0 .209-.621.763.763 0 0 0-.184-.529 1.376 1.376 0 0 0-.494-.341 4.872 4.872 0 0 0-.699-.238l-.86-.234c-.582-.159-1.044-.392-1.385-.7-.338-.308-.508-.715-.508-1.221 0-.42.114-.785.341-1.098.228-.312.535-.555.924-.728a3.16 3.16 0 0 1 1.313-.263c.493 0 .927.087 1.304.26.379.173.677.41.895.713.217.301.331.647.341 1.037h-1.059Zm4.93-.092v.852h-2.979v-.852h2.979Zm-2.18-1.307h1.062v5.16c0 .206.03.361.092.465a.48.48 0 0 0 .238.21.964.964 0 0 0 .323.053c.085 0 .16-.006.224-.018l.149-.028.192.877a2.13 2.13 0 0 1-.689.114c-.28.004-.54-.045-.782-.15a1.342 1.342 0 0 1-.585-.482c-.15-.218-.224-.492-.224-.821v-5.38Zm4.942 6.882c-.346 0-.658-.064-.937-.191a1.581 1.581 0 0 1-.664-.565c-.161-.246-.242-.548-.242-.906 0-.307.059-.561.178-.76.118-.198.278-.356.479-.472.201-.116.426-.203.675-.263a6.78 6.78 0 0 1 .76-.135l.795-.092c.204-.026.352-.067.444-.124.092-.057.139-.149.139-.277v-.025c0-.31-.088-.55-.263-.721-.173-.17-.431-.256-.774-.256-.358 0-.64.08-.846.238a1.285 1.285 0 0 0-.422.522l-.998-.227c.118-.331.291-.599.518-.802.23-.206.494-.356.792-.448.299-.095.612-.142.941-.142.218 0 .449.026.693.078.246.05.476.142.689.277.215.135.392.328.529.579.137.249.206.572.206.969v3.623h-1.037v-.746h-.043a1.495 1.495 0 0 1-.309.405 1.648 1.648 0 0 1-.529.33 2.041 2.041 0 0 1-.774.131Zm.231-.852c.293 0 .544-.058.753-.174.21-.116.37-.267.479-.454.111-.19.167-.392.167-.608v-.703a.548.548 0 0 1-.22.107c-.107.03-.229.058-.366.081a28.66 28.66 0 0 1-.401.061l-.327.042a2.59 2.59 0 0 0-.564.132.954.954 0 0 0-.405.266.664.664 0 0 0-.149.455c0 .262.097.461.291.596.194.133.441.199.742.199Zm6.162 2.891c-.433 0-.806-.057-1.119-.171a2.163 2.163 0 0 1-.76-.451 1.903 1.903 0 0 1-.44-.614l.913-.377c.064.105.149.215.255.331.109.118.256.219.441.302.187.082.427.124.721.124.402 0 .735-.098.998-.295.262-.194.394-.504.394-.93v-1.073h-.068a2.407 2.407 0 0 1-.277.387 1.486 1.486 0 0 1-.49.37c-.208.104-.479.156-.813.156-.431 0-.819-.101-1.165-.302a2.152 2.152 0 0 1-.817-.898c-.198-.398-.298-.887-.298-1.467 0-.58.098-1.077.295-1.491.199-.415.471-.732.817-.952a2.117 2.117 0 0 1 1.175-.334c.339 0 .612.057.82.17.209.112.371.242.487.391.118.149.209.281.273.394h.078v-.884h1.041v5.575c0 .469-.109.854-.327 1.154a1.917 1.917 0 0 1-.884.668 3.417 3.417 0 0 1-1.25.217Zm-.011-3.122c.306 0 .564-.071.775-.213.213-.144.374-.35.482-.618.112-.27.167-.593.167-.969 0-.367-.054-.69-.163-.97a1.445 1.445 0 0 0-.479-.653c-.211-.159-.472-.238-.782-.238-.319 0-.586.083-.799.249a1.495 1.495 0 0 0-.483.667 2.669 2.669 0 0 0-.159.945c0 .357.054.671.163.941.109.27.27.48.483.632.215.151.48.227.795.227Zm6.247 1.073c-.538 0-1-.115-1.389-.345a2.337 2.337 0 0 1-.895-.976c-.208-.422-.312-.915-.312-1.481 0-.559.104-1.051.312-1.477.211-.427.505-.759.881-.998.379-.239.822-.359 1.328-.359.308 0 .606.051.895.153.289.102.548.261.778.479.229.218.411.501.543.849.133.346.199.766.199 1.261v.376h-4.336v-.796h3.296c0-.279-.057-.526-.171-.742a1.293 1.293 0 0 0-.479-.515 1.346 1.346 0 0 0-.718-.188c-.298 0-.558.074-.781.22-.22.145-.391.334-.511.569a1.632 1.632 0 0 0-.178.756v.621c0 .365.064.675.192.931.13.255.311.451.543.586.232.132.503.199.813.199.202 0 .385-.029.551-.086.166-.059.309-.146.43-.262.12-.116.213-.26.277-.43l1.005.181a1.823 1.823 0 0 1-.434.778c-.206.22-.465.391-.777.515a2.93 2.93 0 0 1-1.062.181ZM353.962 120.144l-3.031-4.5h6.062l-3.031 4.5Z" style="fill:#575757;fill:color(display-p3 .34 .34 .34);fill-opacity:1"></path></g></g><rect width="1023" height="543" x="40.5" y="40.5" stroke="#E7E5DF" stroke-opacity=".6" rx="7.5" style="stroke:#e7e5df;stroke:color(display-p3 .9059 .898 .8745);stroke-opacity:.6"></rect></g><defs><clipPath id="a"><path fill="#fff" d="M0 0h575v449H0z" style="fill:#fff;fill-opacity:1"></path></clipPath><clipPath id="c"><rect width="1024" height="544" x="40" y="40" fill="#fff" rx="8" style="fill:#fff;fill-opacity:1"></rect></clipPath><clipPath id="e"><path fill="#fff" d="M0 0h48v32H0z" style="fill:#fff;fill-opacity:1" transform="translate(40 336)"></path></clipPath><clipPath id="g"><path fill="#fff" d="M0 0h976v534H0z" style="fill:#fff;fill-opacity:1" transform="translate(88 93)"></path></clipPath><clipPath id="h"><rect width="944" height="265" x="104" y="406" fill="#fff" rx="8" style="fill:#fff;fill-opacity:1"></rect></clipPath><filter id="b" width="716" height="598" x="-20" y="10" color-interpolation-filters="sRGB" filterUnits="userSpaceOnUse"><feFlood flood-opacity="0" result="BackgroundImageFix"></feFlood><feColorMatrix in="SourceAlpha" result="hardAlpha" values="0 0 0 0 0 0 0 0 0 0 0 0 0 0 0 0 0 0 127 0"></feColorMatrix><feOffset dy="30"></feOffset><feGaussianBlur stdDeviation="30"></feGaussianBlur><feComposite in2="hardAlpha" operator="out"></feComposite><feColorMatrix values="0 0 0 0 0 0 0 0 0 0 0 0 0 0 0 0 0 0 0.05 0"></feColorMatrix><feBlend in2="BackgroundImageFix" result="effect1_dropShadow_3543_116086"></feBlend><feBlend in="SourceGraphic" in2="effect1_dropShadow_3543_116086" result="shape"></feBlend></filter></defs></svg> 